<?xml version="1.0" encoding="UTF-8" standalone="no"?>
<!-- Created with Inkscape (http://www.inkscape.org/) -->

<svg
   xmlns:dc="http://purl.org/dc/elements/1.1/"
   xmlns:cc="http://creativecommons.org/ns#"
   xmlns:rdf="http://www.w3.org/1999/02/22-rdf-syntax-ns#"
   xmlns:svg="http://www.w3.org/2000/svg"
   xmlns="http://www.w3.org/2000/svg"
   xmlns:sodipodi="http://sodipodi.sourceforge.net/DTD/sodipodi-0.dtd"
   xmlns:inkscape="http://www.inkscape.org/namespaces/inkscape"
   width="101.07113mm"
   height="110.47798mm"
   viewBox="0 0 101.07113 110.47798"
   version="1.1"
   id="svg4901"
   inkscape:version="0.92.4 (5da689c313, 2019-01-14)"
   sodipodi:docname="favicon.svg">
  <defs
     id="defs4895" />
  <sodipodi:namedview
     id="base"
     pagecolor="#ffffff"
     bordercolor="#666666"
     borderopacity="1.0"
     inkscape:pageopacity="0.0"
     inkscape:pageshadow="2"
     inkscape:zoom="0.7"
     inkscape:cx="576.67337"
     inkscape:cy="174.65709"
     inkscape:document-units="mm"
     inkscape:current-layer="layer1"
     showgrid="false"
     fit-margin-top="0"
     fit-margin-left="0"
     fit-margin-right="0"
     fit-margin-bottom="0"
     inkscape:window-width="1680"
     inkscape:window-height="1019"
     inkscape:window-x="0"
     inkscape:window-y="0"
     inkscape:window-maximized="1" />
  <metadata
     id="metadata4898">
    <rdf:RDF>
      <cc:Work
         rdf:about="">
        <dc:format>image/svg+xml</dc:format>
        <dc:type
           rdf:resource="http://purl.org/dc/dcmitype/StillImage" />
        <dc:title></dc:title>
      </cc:Work>
    </rdf:RDF>
  </metadata>
  <g
     inkscape:label="Ebene 1"
     inkscape:groupmode="layer"
     id="layer1"
     transform="translate(-52.648914,-95.106249)">
    <path
       style="fill:#155c8f;stroke-width:0.51357603"
       d="m 94.663111,204.81732 c -11.702348,-2.19359 -22.034684,-7.98261 -29.998716,-16.80773 -4.971339,-5.50884 -8.424696,-11.25215 -10.911515,-18.14701 -1.487217,-4.12341 -1.438169,-4.54178 0.531318,-4.53211 2.175076,0.0107 2.535558,0.3402 3.596828,3.28797 4.744249,13.17756 15.642809,24.33283 28.847966,29.52749 3.573169,1.40561 13.268789,3.34736 16.701698,3.34487 3.01153,-0.002 10.53199,-1.36832 14.51851,-2.63736 10.14721,-3.23018 19.60972,-10.57225 25.85818,-20.06364 1.75256,-2.66215 4.04226,-7.35305 5.86994,-12.0258 0.46486,-1.18849 0.8749,-1.44156 2.33571,-1.44156 2.11971,0 2.1735,0.3655 0.66814,4.54014 -3.76812,10.44967 -11.03368,19.93134 -20.0153,26.12025 -7.11594,4.90333 -11.94175,6.93759 -20.44442,8.61808 -6.25779,1.23681 -11.75333,1.30455 -17.558339,0.21641 z"
       id="path4025"
       inkscape:connector-curvature="0" />
    <path
       style="fill:#155c8f;stroke-width:0.51357603"
       d="m 95.343351,195.46805 c -13.693068,-2.40151 -26.398154,-12.5957 -32.344146,-25.95198 -1.745689,-3.92131 -1.690129,-4.19614 0.845111,-4.18011 l 2.13845,0.0135 0.96506,2.21434 c 4.35311,9.98826 13.607661,18.52473 23.941555,22.0839 5.34516,1.84097 12.712889,2.35086 18.617069,1.28843 5.25065,-0.94483 5.21841,-0.95183 5.7444,1.24762 0.25803,1.07892 0.34937,2.08644 0.20299,2.23894 -0.14638,0.15251 -2.16709,0.6258 -4.49047,1.05178 -5.02161,0.92068 -10.34615,0.91848 -15.620019,-0.006 z"
       id="path4023"
       inkscape:connector-curvature="0" />
    <path
       style="fill:#155c8f;stroke-width:0.51357603"
       d="m 136.61457,175.85898 -1.18057,-0.99593 2.35215,-4.63926 2.35216,-4.63925 1.85795,-0.16681 c 2.90642,-0.26095 3.08047,0.44162 1.10377,4.45556 -3.73755,7.58953 -4.14192,7.96273 -6.48546,5.98569 z"
       id="path4021"
       inkscape:connector-curvature="0" />
    <path
       style="fill:#155c8f;stroke-width:0.51357603"
       d="m 63.089566,135.58741 c -1.923061,-0.29772 -1.792031,-1.37181 0.810061,-6.64013 2.60966,-5.28367 6.41449,-10.41254 10.026068,-13.515 1.442932,-1.23953 2.73672,-2.38261 2.875092,-2.54019 0.698029,-0.79493 5.699116,-3.8028 8.605596,-5.17576 11.498347,-5.4316 26.810167,-4.9928 37.937077,1.0872 6.54469,3.57616 12.55635,9.16575 16.52343,15.36333 1.28988,2.0151 2.34019,3.90223 2.33404,4.19362 -0.006,0.2914 -0.41975,1.08318 -0.9191,1.75953 l -0.90791,1.22973 -2.79569,-3.06444 c -1.53763,-1.68544 -4.12115,-4.55967 -5.74116,-6.38716 -5.91079,-6.66785 -12.8831,-10.68707 -21.52898,-12.41047 -17.273729,-3.4432 -34.438853,5.38854 -42.759544,22.00049 -2.180751,4.35377 -2.27217,4.43782 -4.45898,4.09925 z"
       id="path3971"
       inkscape:connector-curvature="0" />
    <path
       style="fill:#155c8f;stroke-width:0.51357603"
       d="m 52.648914,134.67595 c 0,-2.11127 4.370393,-11.8147 6.541701,-14.52434 l 1.314382,-1.64024 1.35518,0.92508 c 0.745349,0.50879 1.355179,1.10768 1.355179,1.33086 0,0.22318 -0.890039,1.99256 -1.977871,3.93195 -1.087819,1.9394 -2.48339,4.85523 -3.10125,6.47963 -0.61786,1.62439 -1.340504,3.24831 -1.605883,3.6087 -0.697651,0.94743 -3.881438,0.85585 -3.881438,-0.11164 z"
       id="path3969"
       inkscape:connector-curvature="0" />
    <path
       style="fill:#155c8f;stroke-width:0.51357603"
       d="m 145.68041,125.08983 c -10.90279,-18.76297 -30.57989,-28.204863 -51.034889,-24.48865 -2.43446,0.44228 -4.58591,0.6192 -4.781,0.39315 -0.19509,-0.22605 -0.50212,-1.062413 -0.68229,-1.858573 -0.40518,-1.79053 0.24116,-2.12543 6.27484,-3.25124 5.047789,-0.94185 10.859979,-1.03725 14.639949,-0.24028 9.13794,1.92664 9.88079,2.16074 16.01385,5.046423 7.95141,3.74124 17.18424,12.36335 22.03802,20.58028 1.43936,2.43667 2.61702,4.73504 2.61702,5.10748 0,0.43822 -0.69574,0.67717 -1.97162,0.67717 -1.7398,0 -2.10592,-0.23112 -3.11388,-1.96576 z"
       id="path3885"
       inkscape:connector-curvature="0" />
  </g>
</svg>
