<?xml version="1.0" encoding="UTF-8" standalone="no"?>
<!-- Created with Inkscape (http://www.inkscape.org/) -->

<svg
   xmlns:dc="http://purl.org/dc/elements/1.1/"
   xmlns:cc="http://creativecommons.org/ns#"
   xmlns:rdf="http://www.w3.org/1999/02/22-rdf-syntax-ns#"
   xmlns:svg="http://www.w3.org/2000/svg"
   xmlns="http://www.w3.org/2000/svg"
   xmlns:sodipodi="http://sodipodi.sourceforge.net/DTD/sodipodi-0.dtd"
   xmlns:inkscape="http://www.inkscape.org/namespaces/inkscape"
   width="245.06888mm"
   height="110.47797mm"
   viewBox="0 0 245.06888 110.47797"
   version="1.1"
   id="svg8"
   sodipodi:docname="logo.svg"
   inkscape:version="0.92.4 (5da689c313, 2019-01-14)">
  <defs
     id="defs2" />
  <sodipodi:namedview
     id="base"
     pagecolor="#ffffff"
     bordercolor="#666666"
     borderopacity="1.0"
     inkscape:pageopacity="0.0"
     inkscape:pageshadow="2"
     inkscape:zoom="0.35"
     inkscape:cx="237.01406"
     inkscape:cy="285.72187"
     inkscape:document-units="mm"
     inkscape:current-layer="layer2"
     showgrid="false"
     inkscape:window-width="1680"
     inkscape:window-height="1019"
     inkscape:window-x="0"
     inkscape:window-y="0"
     inkscape:window-maximized="1"
     fit-margin-top="0"
     fit-margin-left="0"
     fit-margin-right="0"
     fit-margin-bottom="0" />
  <metadata
     id="metadata5">
    <rdf:RDF>
      <cc:Work
         rdf:about="">
        <dc:format>image/svg+xml</dc:format>
        <dc:type
           rdf:resource="http://purl.org/dc/dcmitype/StillImage" />
        <dc:title></dc:title>
      </cc:Work>
    </rdf:RDF>
  </metadata>
  <g
     inkscape:label="Ebene 1"
     inkscape:groupmode="layer"
     id="layer1"
     transform="translate(-24.144138,-142.5835)">
    <path
       style="fill:#155c8f;stroke-width:0.51357603"
       d="m 137.85181,252.29457 c -11.70235,-2.19359 -22.03469,-7.98261 -29.99872,-16.80773 -4.97134,-5.50884 -8.424697,-11.25215 -10.911515,-18.14701 -1.487217,-4.12341 -1.438169,-4.54178 0.531316,-4.53211 2.175078,0.0107 2.535559,0.3402 3.596829,3.28797 4.74425,13.17756 15.64281,24.33283 28.84797,29.52749 3.57317,1.40561 13.26879,3.34736 16.7017,3.34487 3.01153,-0.002 10.53199,-1.36832 14.51851,-2.63736 10.14721,-3.23018 19.60972,-10.57225 25.85818,-20.06364 1.75256,-2.66215 4.04225,-7.35305 5.86994,-12.0258 0.46486,-1.18849 0.8749,-1.44156 2.33571,-1.44156 2.11971,0 2.1735,0.3655 0.66814,4.54014 -3.76812,10.44967 -11.03368,19.93134 -20.0153,26.12025 -7.11594,4.90333 -11.94175,6.93759 -20.44442,8.61808 -6.25779,1.23681 -11.75333,1.30455 -17.55834,0.21641 z"
       id="path4025"
       inkscape:connector-curvature="0" />
    <path
       style="fill:#155c8f;stroke-width:0.51357603"
       d="m 138.53205,242.9453 c -13.69307,-2.40151 -26.39816,-12.5957 -32.34415,-25.95198 -1.74569,-3.92131 -1.69013,-4.19614 0.84511,-4.18011 l 2.13845,0.0135 0.96506,2.21434 c 4.35311,9.98826 13.60766,18.52473 23.94156,22.0839 5.34516,1.84097 12.71289,2.35086 18.61707,1.28843 5.25065,-0.94483 5.21841,-0.95183 5.7444,1.24762 0.25803,1.07892 0.34937,2.08644 0.20299,2.23894 -0.14638,0.15251 -2.16709,0.6258 -4.49047,1.05178 -5.02161,0.92068 -10.34615,0.91848 -15.62002,-0.006 z"
       id="path4023"
       inkscape:connector-curvature="0" />
    <path
       style="fill:#155c8f;stroke-width:0.51357603"
       d="m 179.80327,223.33623 -1.18057,-0.99593 2.35215,-4.63926 2.35216,-4.63925 1.85795,-0.16681 c 2.90642,-0.26095 3.08047,0.44162 1.10377,4.45556 -3.73755,7.58953 -4.14192,7.96273 -6.48546,5.98569 z"
       id="path4021"
       inkscape:connector-curvature="0" />
    <path
       style="fill:#155c8f;stroke-width:0.51357603"
       d="m 106.27826,183.06466 c -1.92306,-0.29772 -1.79203,-1.37181 0.81006,-6.64013 2.60966,-5.28367 6.41449,-10.41254 10.02607,-13.515 1.44293,-1.23953 2.73672,-2.38261 2.87509,-2.54019 0.69803,-0.79493 5.69912,-3.8028 8.6056,-5.17576 11.49835,-5.4316 26.81017,-4.9928 37.93708,1.0872 6.54469,3.57616 12.55635,9.16575 16.52343,15.36333 1.28988,2.0151 2.34019,3.90223 2.33404,4.19362 -0.006,0.2914 -0.41975,1.08318 -0.9191,1.75953 l -0.90791,1.22973 -2.79569,-3.06444 c -1.53763,-1.68544 -4.12115,-4.55967 -5.74116,-6.38716 -5.91079,-6.66785 -12.8831,-10.68707 -21.52898,-12.41047 -17.27373,-3.4432 -34.43886,5.38854 -42.75955,22.00049 -2.18075,4.35377 -2.27217,4.43782 -4.45898,4.09925 z"
       id="path3971"
       inkscape:connector-curvature="0" />
    <path
       style="fill:#155c8f;stroke-width:0.51357603"
       d="m 95.837608,182.1532 c 0,-2.11127 4.370392,-11.8147 6.541702,-14.52434 l 1.31438,-1.64024 1.35518,0.92508 c 0.74535,0.50879 1.35518,1.10768 1.35518,1.33086 0,0.22318 -0.89004,1.99256 -1.97787,3.93195 -1.08782,1.9394 -2.48339,4.85523 -3.10125,6.47963 -0.61786,1.62439 -1.340505,3.24831 -1.605884,3.6087 -0.697652,0.94743 -3.881438,0.85585 -3.881438,-0.11164 z"
       id="path3969"
       inkscape:connector-curvature="0" />
    <path
       style="fill:#155c8f;stroke-width:0.51357603"
       d="m 188.86911,172.56708 c -10.90279,-18.76297 -30.57989,-28.20486 -51.03489,-24.48865 -2.43446,0.44228 -4.58591,0.6192 -4.781,0.39315 -0.19509,-0.22605 -0.50212,-1.06241 -0.68229,-1.85857 -0.40518,-1.79053 0.24116,-2.12543 6.27484,-3.25124 5.04779,-0.94185 10.85998,-1.03725 14.63995,-0.24028 9.13794,1.92664 9.88079,2.16074 16.01385,5.04642 7.95141,3.74124 17.18424,12.36335 22.03802,20.58028 1.43936,2.43667 2.61702,4.73504 2.61702,5.10748 0,0.43822 -0.69574,0.67717 -1.97162,0.67717 -1.7398,0 -2.10592,-0.23112 -3.11388,-1.96576 z"
       id="path3885"
       inkscape:connector-curvature="0" />
  </g>
  <g
     inkscape:groupmode="layer"
     id="layer2"
     inkscape:label="Schrift"
     transform="translate(-24.144138,-55.583502)">
    <path
       transform="translate(0,-87.000001)"
       style="fill:#155c8f;stroke:#155c8f;stroke-width:0.51357603;stroke-opacity:1"
       d="m 48.127814,213.19284 c 0.149985,-1.10022 0.465002,-1.19706 4.689264,-1.44156 l 4.528477,-0.2621 0.155885,-2.55441 c 0.191378,-3.136 -0.184843,-4.43975 -1.02776,-3.56158 -0.337732,0.35185 -2.110884,0.61186 -4.172691,0.61186 -3.09719,0 -3.734357,-0.1652 -4.679426,-1.21325 -0.993614,-1.10188 -1.094037,-1.77202 -1.094037,-7.3008 v -6.08756 l 1.325767,-1.08645 c 1.0516,-0.86177 2.046947,-1.08645 4.813137,-1.08645 1.918055,0 3.920119,0.24128 4.449033,0.53618 0.683719,0.38122 1.252234,0.34714 1.967019,-0.11792 1.601335,-1.04186 2.411404,0.13333 1.634599,2.37136 -0.386375,1.11318 -0.604124,5.16464 -0.604124,11.24031 v 9.49977 l -1.118287,0.81603 c -0.828334,0.60445 -2.402946,0.81603 -6.072963,0.81603 h -4.954679 z"
       id="path4019"
       inkscape:connector-curvature="0" />
    <path
       transform="translate(0,-87.000001)"
       style="fill:#ffffff;stroke:#155c8f;stroke-width:0.51357603;stroke-opacity:1"
       d="m 57.076271,202.35008 c 0.732406,-1.42574 0.667991,-9.10716 -0.08293,-9.88948 -0.788139,-0.82109 -6.558058,-0.82109 -7.346196,0 -0.630426,0.65678 -0.863883,8.53896 -0.298382,10.07425 0.237415,0.64456 1.073684,0.82918 3.756027,0.82918 2.896554,0 3.534248,-0.16281 3.971482,-1.01395 z"
       id="path4017"
       inkscape:connector-curvature="0" />
    <path
       transform="translate(0,-87.000001)"
       style="fill:#155c8f;stroke:#155c8f;stroke-width:0.51357603;stroke-opacity:1"
       d="m 24.401026,205.32979 c 0.007,-0.36039 1.037805,-3.72184 2.290688,-7.4699 1.252883,-3.74805 2.85484,-8.6428 3.559904,-10.87722 l 1.281935,-4.06257 h 1.908349 c 1.347497,0 2.012138,0.2696 2.261502,0.91735 1.197391,3.11037 7.301974,21.54281 7.301974,22.0479 0,0.0931 -0.60308,0.0947 -1.340177,0.004 -1.063247,-0.13159 -1.500621,-0.62622 -2.116637,-2.39373 l -0.776461,-2.22807 h -5.367928 -5.367929 l -0.317465,1.65369 c -0.174607,0.90954 -0.57027,1.97105 -0.879252,2.35892 -0.707688,0.88837 -2.455473,0.92418 -2.438503,0.05 z"
       id="path4015"
       inkscape:connector-curvature="0" />
    <path
       transform="translate(0,-87.000001)"
       style="fill:#ffffff;stroke:#155c8f;stroke-width:0.51357603;stroke-opacity:1"
       d="m 37.633512,198.77725 c 0.336704,-0.59541 -3.825975,-13.30701 -4.207505,-12.84849 -0.488121,0.58662 -4.00606,11.51693 -4.00606,12.44692 0,0.64344 0.760584,0.79472 3.995618,0.79472 2.19759,0 4.095665,-0.17692 4.217947,-0.39315 z"
       id="path4013"
       inkscape:connector-curvature="0" />
    <path
       transform="translate(0,-87.000001)"
       style="fill:#155c8f;stroke:#155c8f;stroke-width:0.51357603;stroke-opacity:1"
       d="m 64.876326,205.34245 c -0.145077,-0.39387 -0.200672,-4.1257 -0.123542,-8.29297 l 0.140232,-7.57684 h 1.25791 1.25791 v 8.12515 8.12515 l -1.134368,0.16782 c -0.623903,0.0923 -1.25307,-0.15444 -1.398142,-0.54831 z"
       id="path4011"
       inkscape:connector-curvature="0" />
    <path
       transform="translate(0,-87.000001)"
       style="fill:#155c8f;stroke:#155c8f;stroke-width:0.51357603;stroke-opacity:1"
       d="m 72.566268,205.25535 c -0.792111,-0.62644 -0.880537,-1.86552 -0.880537,-12.33856 v -11.6422 l 1.132119,0.16751 1.13212,0.16751 0.251582,10.48407 c 0.17261,7.19312 0.456314,10.8577 0.903803,11.67436 1.113291,2.03172 -0.589487,3.02915 -2.539087,1.48731 z"
       id="path4009"
       inkscape:connector-curvature="0" />
    <path
       transform="translate(0,-87.000001)"
       style="fill:#155c8f;stroke:#155c8f;stroke-width:0.51357603;stroke-opacity:1"
       d="m 128.6716,203.7572 c -2.32167,-8.69982 -5.15997,-19.89647 -5.15997,-20.35531 0,-0.30328 0.62267,-0.47677 1.3837,-0.38554 1.15377,0.13831 1.46315,0.5143 1.86178,2.26268 3.62522,15.90003 4.17041,17.81779 4.69419,16.51241 0.28921,-0.72078 1.40739,-5.20272 2.48484,-9.95987 l 1.959,-8.64935 1.85887,-0.1627 c 1.02238,-0.0895 1.85887,-0.0624 1.85887,0.0602 0,0.44224 4.6338,19.50208 4.78073,19.66418 0.24688,0.27238 1.06324,-2.83875 3.03531,-11.5676 l 1.86528,-8.2562 h 1.26162 1.26162 l -0.3357,2.22786 c -0.18464,1.22533 -0.55422,2.93554 -0.82131,3.80048 -0.26708,0.86493 -1.35623,4.99303 -2.42032,9.17356 l -1.93471,7.60094 -1.81427,0.1613 -1.81427,0.1613 -0.73262,-2.78232 c -0.40294,-1.53027 -1.47572,-6.033 -2.38395,-10.00606 -0.90823,-3.97307 -1.8038,-6.92171 -1.99015,-6.55254 -0.18634,0.36916 -1.19051,4.44547 -2.23147,9.05846 -1.04096,4.61299 -2.09805,8.80006 -2.34908,9.30461 -0.29237,0.58765 -1.04351,0.91736 -2.08993,0.91736 -1.49309,0 -1.68464,-0.19153 -2.22806,-2.22787 z"
       id="path4007"
       inkscape:connector-curvature="0" />
    <path
       transform="translate(0,-87.000001)"
       style="fill:#155c8f;stroke:#155c8f;stroke-width:0.51357603;stroke-opacity:1"
       d="m 154.43954,205.34247 c -0.14508,-0.39387 -0.20068,-4.1257 -0.12355,-8.29297 l 0.14023,-7.57684 h 1.25792 1.25791 v 8.12515 8.12515 l -1.13437,0.16782 c -0.62391,0.0923 -1.25307,-0.15444 -1.39814,-0.54831 z"
       id="path4005"
       inkscape:connector-curvature="0" />
    <path
       transform="translate(0,-87.000001)"
       style="fill:#155c8f;stroke:#155c8f;stroke-width:0.51357603;stroke-opacity:1"
       d="m 161.7521,199.89935 c 0,-3.47599 -0.26315,-6.91679 -0.60412,-7.89917 -0.81146,-2.33787 -0.0121,-3.31038 1.86203,-2.26542 0.98203,0.54754 1.41581,0.56939 1.87188,0.0943 1.27129,-1.32445 5.92717,-0.52692 5.92717,1.0153 0,1.08631 -0.30138,1.17923 -3.30365,1.01862 -1.24406,-0.0666 -2.27266,0.17543 -2.62483,0.6175 -0.34519,0.43333 -0.63667,3.25443 -0.72166,6.98474 l -0.14258,6.25779 -1.13212,0.16751 -1.13212,0.16751 z"
       id="path4003"
       inkscape:connector-curvature="0" />
    <path
       transform="translate(0,-87.000001)"
       style="fill:#155c8f;stroke:#155c8f;stroke-width:0.51357603;stroke-opacity:1"
       d="m 174.33121,193.66629 v -12.3917 l 1.13212,0.16751 1.13212,0.16751 0.1396,7.4699 0.13961,7.4699 h 1.22863 c 0.93595,0 1.64126,-0.67202 2.96078,-2.82101 1.77107,-2.88439 3.66653,-4.68728 4.41875,-4.20294 0.69616,0.44824 0.47547,2.13078 -0.37605,2.86703 -0.43846,0.37911 -1.45724,1.68874 -2.26395,2.91028 l -1.46675,2.22098 2.45461,3.8375 c 1.35004,2.11063 2.35546,4.01443 2.23426,4.23066 -0.12119,0.21624 -0.71836,0.39316 -1.32705,0.39316 -0.82988,0 -1.61562,-0.88503 -3.14143,-3.53838 -1.59089,-2.76652 -2.32566,-3.57403 -3.36839,-3.70186 l -1.33364,-0.16348 -0.14949,3.5708 c -0.136,3.24845 -0.2517,3.58594 -1.28161,3.73832 l -1.13212,0.16751 z"
       id="path4001"
       inkscape:connector-curvature="0" />
    <path
       transform="translate(0,-87.000001)"
       style="fill:#155c8f;stroke:#155c8f;stroke-width:0.51357603;stroke-opacity:1"
       d="m 190.97675,205.06771 -1.0767,-0.91736 0.14041,-11.27037 0.14042,-11.27037 1.13212,-0.16751 1.13211,-0.16751 v 10.40389 c 0,8.659 0.13411,10.60336 0.79963,11.59324 1.52701,2.27127 -0.15079,3.59988 -2.26799,1.79599 z"
       id="path3999"
       inkscape:connector-curvature="0" />
    <path
       transform="translate(0,-87.000001)"
       style="fill:#155c8f;stroke:#155c8f;stroke-width:0.51357603;stroke-opacity:1"
       d="m 197.97992,197.59781 v -8.46017 l 1.13212,0.16751 1.13212,0.16751 v 8.12515 8.12515 l -1.13212,0.16751 -1.13212,0.16751 z"
       id="path3997"
       inkscape:connector-curvature="0" />
    <path
       transform="translate(0,-87.000001)"
       style="fill:#155c8f;stroke:#155c8f;stroke-width:0.51357603;stroke-opacity:1"
       d="m 205.65317,205.10733 -1.13212,-0.82275 v -6.45056 -6.45056 l 1.3837,-1.13521 c 1.20801,-0.99106 1.88512,-1.11159 5.33252,-0.94918 3.44526,0.1623 4.07354,0.34651 4.92698,1.44453 1.20801,1.5542 1.02941,2.86973 -0.41889,3.08555 -0.7036,0.10484 -1.29504,-0.23056 -1.66028,-0.94156 -0.49833,-0.97007 -0.94622,-1.08553 -3.68198,-0.94916 l -3.11464,0.15525 v 5.50413 5.50414 l 3.39635,0.155 c 2.79234,0.12743 3.39636,0.0109 3.39636,-0.65526 0,-0.55081 0.48333,-0.81025 1.50949,-0.81025 1.79927,0 1.94175,0.85872 0.46665,2.81242 -0.97849,1.29595 -1.29681,1.37951 -5.15743,1.35371 -2.88698,-0.0193 -4.45236,-0.27297 -5.24671,-0.85024 z"
       id="path3995"
       inkscape:connector-curvature="0" />
    <path
       transform="translate(0,-87.000001)"
       style="fill:#155c8f;stroke:#155c8f;stroke-width:0.51357603;stroke-opacity:1"
       d="m 220.86151,205.35418 c -0.14271,-0.38744 -0.1983,-5.88537 -0.12354,-12.21764 0.12739,-10.79097 0.19526,-11.52509 1.08195,-11.7027 1.41018,-0.28246 1.80514,0.81576 1.81366,5.04309 l 0.008,3.81892 0.97325,-0.54265 c 0.53529,-0.29845 2.22085,-0.54264 3.74568,-0.54264 2.20429,0 3.06173,0.25902 4.18418,1.264 l 1.41176,1.26402 v 6.99219 6.99219 h -1.25791 -1.25791 l -0.25158,-6.81464 -0.25158,-6.81464 -2.48248,-0.16371 c -1.36536,-0.09 -3.00018,-0.0284 -3.63295,0.13712 l -1.15047,0.30082 -0.14078,6.67753 -0.14078,6.67752 -1.13437,0.16782 c -0.62391,0.0923 -1.25113,-0.14917 -1.39383,-0.5366 z"
       id="path3993"
       inkscape:connector-curvature="0" />
    <path
       transform="translate(0,-87.000001)"
       style="fill:#155c8f;stroke:#155c8f;stroke-width:0.51357603;stroke-opacity:1"
       d="m 238.82392,204.77182 c -0.99362,-1.10188 -1.09404,-1.77202 -1.09404,-7.3008 v -6.08756 l 1.38346,-1.13372 c 1.22417,-1.0032 1.88558,-1.1132 5.74461,-0.9554 3.89009,0.15906 4.47659,0.31707 5.42995,1.46284 0.8973,1.07841 1.04529,1.83542 0.92231,4.71783 l -0.14648,3.43331 -5.43835,0.14909 -5.43836,0.1491 0.15513,1.94772 0.15514,1.94772 4.75282,0.15208 c 5.10631,0.16339 6.84508,0.84049 5.25972,2.0482 -0.58954,0.44911 -2.55566,0.68284 -5.74411,0.68284 -4.41674,0 -4.94504,-0.10787 -5.9418,-1.21325 z"
       id="path3991"
       inkscape:connector-curvature="0" />
    <path
       transform="translate(0,-87.000001)"
       style="fill:#ffffff;stroke:#155c8f;stroke-width:0.51357603;stroke-opacity:1"
       d="m 248.29633,194.45259 v -2.62102 h -3.7199 c -2.9279,0 -3.78492,0.17655 -4.02531,0.82918 -0.40774,1.10697 -0.38911,3.62672 0.03,4.06339 0.18449,0.19221 1.99588,0.34947 4.02531,0.34947 h 3.68987 v -2.62102 z"
       id="path3989"
       inkscape:connector-curvature="0" />
    <path
       transform="translate(0,-87.000001)"
       style="fill:#155c8f;stroke:#155c8f;stroke-width:0.51357603;stroke-opacity:1"
       d="m 255.84379,199.46187 c 0,-4.08776 -0.22154,-6.96569 -0.58257,-7.56797 -0.80408,-1.34137 -0.1741,-2.90939 0.96419,-2.39985 0.48196,0.21574 1.21593,0.34715 1.63104,0.29202 0.41511,-0.0551 2.45852,-0.22397 4.54091,-0.37517 3.35221,-0.2434 3.94493,-0.1448 5.17133,0.86021 l 1.38515,1.13512 -0.13968,7.15836 -0.13969,7.15837 -1.13211,0.16751 -1.13212,0.16751 v -6.79502 c 0,-5.71259 -0.12679,-6.8457 -0.7959,-7.1132 -1.4856,-0.59392 -6.10961,-0.33773 -6.67317,0.36971 -0.30767,0.38622 -0.61052,3.4322 -0.69056,6.9457 l -0.14258,6.25779 -1.13212,0.16751 -1.13212,0.16751 z"
       id="path3987"
       inkscape:connector-curvature="0" />
    <path
       transform="translate(0,-87.000001)"
       style="fill:#8baabf;stroke:#155c8f;stroke-width:0.51357603;stroke-opacity:1"
       d="m 81.012567,197.88988 c -1.353013,-4.19142 -2.316643,-7.77014 -2.141401,-7.95271 0.675317,-0.70355 1.792578,0.3266 2.139635,1.97281 0.199656,0.94703 0.548731,2.08345 0.775728,2.52539 0.226998,0.44193 0.895667,2.51151 1.485934,4.59907 1.636723,5.78849 1.573173,5.84334 4.550053,-3.92661 1.294002,-4.24686 1.830989,-5.37309 2.56189,-5.37309 0.508598,0 0.917328,0.17692 0.908287,0.39315 -0.0091,0.21624 -1.100138,3.69564 -2.424663,7.732 l -2.408223,7.33885 -1.493608,0.15595 -1.493612,0.15594 z"
       id="path3985"
       inkscape:connector-curvature="0" />
    <path
       transform="translate(0,-87.000001)"
       style="fill:#8baabf;stroke:#155c8f;stroke-width:0.51357603;stroke-opacity:1"
       d="m 95.354047,204.31359 c -0.900412,-1.00689 -1.025931,-1.83598 -1.025931,-6.7766 v -5.62934 l 1.325767,-1.08646 c 1.10126,-0.90247 2.038524,-1.08645 5.534807,-1.08645 5.50565,0 6.22169,0.63346 6.22169,5.50414 v 3.40732 h -5.24931 c -4.868357,0 -5.273339,0.0788 -5.580244,1.08624 -0.548796,1.80141 0.157315,3.58395 1.56556,3.95218 0.707922,0.1851 2.957804,0.22485 4.999744,0.0883 2.68718,-0.17967 3.77922,-0.0674 3.95376,0.40648 0.4172,1.13265 -0.22597,1.28141 -5.54015,1.28141 -4.680572,0 -5.278638,-0.11056 -6.205693,-1.14725 z"
       id="path3983"
       inkscape:connector-curvature="0" />
    <path
       transform="translate(0,-87.000001)"
       style="fill:#ffffff;stroke:#155c8f;stroke-width:0.51357603;stroke-opacity:1"
       d="m 105.3044,194.80914 c 0.087,-1.10129 -0.1105,-2.33972 -0.43898,-2.75207 -0.8771,-1.10102 -6.402533,-1.01541 -7.604492,0.11783 -0.905811,0.85402 -1.27457,3.83051 -0.566019,4.56869 0.19477,0.20292 2.175978,0.30121 4.402681,0.21842 l 4.04855,-0.15052 z"
       id="path3981"
       inkscape:connector-curvature="0" />
    <path
       transform="translate(0,-87.000001)"
       style="fill:#8baabf;stroke:#155c8f;stroke-width:0.51357603;stroke-opacity:1"
       d="m 112.33745,197.72884 c -0.11907,-4.2526 -0.13395,-7.84102 -0.0331,-7.97426 0.10088,-0.13323 0.63118,0.0491 1.17845,0.40514 0.70606,0.45938 1.27431,0.49168 1.95669,0.11121 2.08954,-1.16505 7.40994,-0.22486 5.59948,0.9895 -0.39136,0.2625 -1.46249,0.35033 -2.38028,0.19516 -1.09329,-0.18483 -2.10586,0.0162 -2.93638,0.58321 l -1.26767,0.86533 v 6.27835 c 0,5.80568 -0.0716,6.27836 -0.95038,6.27836 -0.87898,0 -0.96663,-0.58081 -1.16685,-7.732 z"
       id="path3979"
       inkscape:connector-curvature="0" />
    <path
       transform="translate(0,-87.000001)"
       style="fill:#155c8f;stroke:#155c8f;stroke-width:0.51357603;stroke-opacity:1"
       d="m 64.976878,185.71585 c -0.184495,-0.19221 -0.335444,-0.89988 -0.335444,-1.57261 0,-0.99953 0.266123,-1.22314 1.455659,-1.22314 1.519037,0 2.25017,0.98819 1.745285,2.35891 -0.291302,0.79086 -2.240469,1.08801 -2.8655,0.43684 z"
       id="path3977"
       inkscape:connector-curvature="0" />
    <path
       transform="translate(0,-87.000001)"
       style="fill:#155c8f;stroke:#155c8f;stroke-width:0.51357603;stroke-opacity:1"
       d="m 154.56131,185.73795 c -0.19617,-0.20438 -0.35667,-0.922 -0.35667,-1.59473 0,-1.01546 0.26198,-1.22314 1.54292,-1.22314 1.38633,0 1.52675,0.14629 1.3837,1.44156 -0.15607,1.41311 -1.72706,2.25443 -2.56995,1.3763 z"
       id="path3975"
       inkscape:connector-curvature="0" />
    <path
       transform="translate(0,-87.000001)"
       style="fill:#155c8f;stroke:#155c8f;stroke-width:0.51357603;stroke-opacity:1"
       d="m 197.67165,185.3141 c -0.54017,-1.4665 0.20203,-2.47628 1.68911,-2.29807 1.10103,0.13194 1.38656,0.43603 1.38656,1.47666 0,1.04064 -0.28553,1.34473 -1.38656,1.47667 -0.90422,0.10836 -1.49181,-0.11959 -1.68911,-0.65526 z"
       id="path3973"
       inkscape:connector-curvature="0" />
  </g>
</svg>
